# xmcd CD database file
#
# Track frame offsets:
#	150
#	13625
#	27344
#	45551
#	58685
#	73158
#	87324
#	108034
#	124977
#	140550
#	157759
#	169788
#	188657
#	199819
#	209649
#	223511
#	241398
#	253146
#	265371
#	274453
#
# Disc length: 3901 seconds
#
# Revision: 0
# Processed by: cddbd v1.5.2PL0 Copyright (c) Steve Scherf et al.
# Submitted via: CDex 1.70beta2
#
DISCID=2f0f3b14
DTITLE=Eva Olmerová - Já hledám štěstí (Zlatá kolekce 1962-1992) CD2
DYEAR=2014
DGENRE=Jazz
TTITLE0=Alexander's Ragtime Band
TTITLE1=St.Louis Blues
TTITLE2=I Wish I Could Shimmy Like My Sister Kate
TTITLE3=Oh, Daddy Blues
TTITLE4=Nobody Knows You When You're Down And Out
TTITLE5=Ain't Misbehavin'
TTITLE6=My Funny Valentine
TTITLE7=Nearness Of You
TTITLE8=In Might As Well Be Spring
TTITLE9=Sonny Boy
TTITLE10=Druhý břeh
TTITLE11=Předejít čas
TTITLE12=You Always Hurt The One You Love
TTITLE13=Georgia On My Mind
TTITLE14=Aleluja a jazz
TTITLE15=Ja-da
TTITLE16=Pár zlatem šitých let
TTITLE17=Little Boat
TTITLE18=Dívka z Ipanemy
TTITLE19=Oop Bop Sh-Bam
EXTD=YEAR: 2014
EXTT0=
EXTT1=
EXTT2=
EXTT3=
EXTT4=
EXTT5=
EXTT6=
EXTT7=
EXTT8=
EXTT9=
EXTT10=
EXTT11=
EXTT12=
EXTT13=
EXTT14=
EXTT15=
EXTT16=
EXTT17=
EXTT18=
EXTT19=
PLAYORDER=
